<?xml version="1.0" encoding="UTF-8" standalone="no"?>
<!DOCTYPE svg PUBLIC "-//W3C//DTD SVG 1.1//EN"
 "http://www.w3.org/Graphics/SVG/1.1/DTD/svg11.dtd">
<!-- Generated by graphviz version 7.0.1 (20221109.1506)
 -->
<!-- Title: dag Pages: 1 -->
<svg width="348pt" height="348pt"
 viewBox="0.00 0.00 347.60 347.80" xmlns="http://www.w3.org/2000/svg" xmlns:xlink="http://www.w3.org/1999/xlink">
<g id="graph0" class="graph" transform="scale(1 1) rotate(0) translate(4 343.8)">
<title>dag</title>
<polygon fill="white" stroke="none" points="-4,4 -4,-343.8 343.6,-343.8 343.6,4 -4,4"/>
<!-- v0 -->
<g id="node1" class="node">
<title>v0</title>
<ellipse fill="black" stroke="black" cx="103.6" cy="-321.2" rx="3.6" ry="3.6"/>
<text text-anchor="middle" x="50" y="-328.6" font-family="Times,serif" font-size="14.00">Channel.fromPath</text>
</g>
<!-- v1 -->
<g id="node2" class="node">
<title>v1</title>
<ellipse fill="none" stroke="black" cx="103.6" cy="-277.1" rx="3.5" ry="3.5"/>
<text text-anchor="middle" x="81.6" y="-284.4" font-family="Times,serif" font-size="14.00">collect</text>
</g>
<!-- v0&#45;&gt;v1 -->
<g id="edge1" class="edge">
<title>v0&#45;&gt;v1</title>
<path fill="none" stroke="black" d="M103.6,-317.17C103.6,-312.03 103.6,-301.26 103.6,-292.33"/>
<polygon fill="black" stroke="black" points="107.1,-292.39 103.6,-282.39 100.1,-292.39 107.1,-292.39"/>
</g>
<!-- v2 -->
<g id="node3" class="node">
<title>v2</title>
<ellipse fill="none" stroke="black" cx="103.6" cy="-218.6" rx="44.39" ry="18"/>
<text text-anchor="middle" x="103.6" y="-214.9" font-family="Times,serif" font-size="14.00">createDB</text>
</g>
<!-- v1&#45;&gt;v2 -->
<g id="edge2" class="edge">
<title>v1&#45;&gt;v2</title>
<path fill="none" stroke="black" d="M103.6,-273.37C103.6,-268.67 103.6,-258.53 103.6,-248.31"/>
<polygon fill="black" stroke="black" points="107.1,-248.53 103.6,-238.53 100.1,-248.53 107.1,-248.53"/>
</g>
<!-- v6 -->
<g id="node4" class="node">
<title>v6</title>
<ellipse fill="none" stroke="black" cx="169.6" cy="-131.6" rx="34.39" ry="18"/>
<text text-anchor="middle" x="169.6" y="-127.9" font-family="Times,serif" font-size="14.00">cluster</text>
</g>
<!-- v2&#45;&gt;v6 -->
<g id="edge3" class="edge">
<title>v2&#45;&gt;v6</title>
<path fill="none" stroke="black" d="M116.33,-201.21C125.97,-188.79 139.4,-171.5 150.36,-157.38"/>
<polygon fill="black" stroke="black" points="152.84,-159.89 156.21,-149.85 147.31,-155.6 152.84,-159.89"/>
</g>
<!-- v7 -->
<g id="node8" class="node">
<title>v7</title>
<ellipse fill="none" stroke="black" cx="115.6" cy="-58.6" rx="42.49" ry="18"/>
<text text-anchor="middle" x="115.6" y="-54.9" font-family="Times,serif" font-size="14.00">createtsv</text>
</g>
<!-- v2&#45;&gt;v7 -->
<g id="edge8" class="edge">
<title>v2&#45;&gt;v7</title>
<path fill="none" stroke="black" d="M104.91,-200.39C106.95,-173.44 110.94,-120.98 113.42,-88.27"/>
<polygon fill="black" stroke="black" points="116.91,-88.53 114.18,-78.3 109.93,-88 116.91,-88.53"/>
<text text-anchor="middle" x="118.6" y="-127.9" font-family="Times,serif" font-size="14.00">db</text>
</g>
<!-- v6&#45;&gt;v7 -->
<g id="edge7" class="edge">
<title>v6&#45;&gt;v7</title>
<path fill="none" stroke="black" d="M157.35,-114.49C150.74,-105.81 142.44,-94.89 134.99,-85.09"/>
<polygon fill="black" stroke="black" points="137.94,-83.19 129.1,-77.34 132.36,-87.42 137.94,-83.19"/>
</g>
<!-- v3 -->
<g id="node5" class="node">
<title>v3</title>
<ellipse fill="black" stroke="black" cx="169.6" cy="-218.6" rx="3.6" ry="3.6"/>
</g>
<!-- v3&#45;&gt;v6 -->
<g id="edge4" class="edge">
<title>v3&#45;&gt;v6</title>
<path fill="none" stroke="black" d="M169.6,-214.77C169.6,-206.44 169.6,-181.3 169.6,-161"/>
<polygon fill="black" stroke="black" points="173.1,-161.28 169.6,-151.28 166.1,-161.28 173.1,-161.28"/>
<text text-anchor="middle" x="194.1" y="-171.4" font-family="Times,serif" font-size="14.00">coverage</text>
</g>
<!-- v4 -->
<g id="node6" class="node">
<title>v4</title>
<ellipse fill="black" stroke="black" cx="241.6" cy="-218.6" rx="3.6" ry="3.6"/>
</g>
<!-- v4&#45;&gt;v6 -->
<g id="edge5" class="edge">
<title>v4&#45;&gt;v6</title>
<path fill="none" stroke="black" d="M240.89,-214.59C238.82,-206.33 232.12,-182.85 219.6,-167.6 214.68,-161.6 208.48,-156.17 202.14,-151.47"/>
<polygon fill="black" stroke="black" points="204.36,-148.75 194.13,-145.99 200.4,-154.53 204.36,-148.75"/>
<text text-anchor="middle" x="249.6" y="-171.4" font-family="Times,serif" font-size="14.00">identity</text>
</g>
<!-- v5 -->
<g id="node7" class="node">
<title>v5</title>
<ellipse fill="black" stroke="black" cx="306.6" cy="-218.6" rx="3.6" ry="3.6"/>
</g>
<!-- v5&#45;&gt;v6 -->
<g id="edge6" class="edge">
<title>v5&#45;&gt;v6</title>
<path fill="none" stroke="black" d="M305.62,-214.87C302.47,-206.5 291.84,-181.02 274.6,-167.6 256.9,-153.82 233.51,-145.33 213.3,-140.17"/>
<polygon fill="black" stroke="black" points="214.15,-136.77 203.62,-137.91 212.56,-143.59 214.15,-136.77"/>
<text text-anchor="middle" x="313.6" y="-171.4" font-family="Times,serif" font-size="14.00">covMode</text>
</g>
<!-- v8 -->
<g id="node9" class="node">
<title>v8</title>
<ellipse fill="black" stroke="black" cx="115.6" cy="-1.8" rx="1.8" ry="1.8"/>
</g>
<!-- v7&#45;&gt;v8 -->
<g id="edge9" class="edge">
<title>v7&#45;&gt;v8</title>
<path fill="none" stroke="black" d="M115.6,-40.26C115.6,-32.18 115.6,-22.74 115.6,-15.35"/>
<polygon fill="black" stroke="black" points="119.1,-15.51 115.6,-5.51 112.1,-15.51 119.1,-15.51"/>
</g>
</g>
</svg>
